<?xml version="1.0" encoding="UTF-8"?>
<svg id="Publicdomainvectors.org" xmlns="http://www.w3.org/2000/svg" viewBox="0 0 599.7 426.28">
  <circle cx="358.03" cy="252.33" r="149.72" transform="translate(-61.73 127.2) rotate(-18.58)" fill="#abd066"/>
  <path d="M476.89,343.37c-27.37,35.67-70.42,58.68-118.85,58.68-82.69,0-149.72-67.03-149.72-149.72,0-5.3,.28-10.53,.82-15.68,28.46-24.55,65.53-39.39,106.07-39.39,84.22,0,153.47,64.07,161.69,146.12Z" fill="#9fc05f" fill-rule="evenodd"/>
  <path d="M358.03,102.61c5.51,0,10.96,.31,16.32,.89,70.81,27.08,115.91,111.54,101.4,192.23-14.51-86.82-97.81-168.09-178.8-180.13,18.66-8.35,39.33-13,61.09-13Z" fill="#c7de7f" fill-rule="evenodd"/>
  <path d="M382.87,80.22c6.99,0,13.05,4.02,15.97,9.88,2.89,5.79,7.39,9.77,13.5,11.92,3.99,1.41,7.38,4.11,9.65,7.6,3.68,5.66,8.91,9.19,15.54,10.48,8.97,1.75,15.77,9.56,15.96,18.99,.12,5.77,1.99,10.69,5.73,15.09,.57,.67,1.07,1.39,1.5,2.17,2.38,4.33,5.56,7.44,9.95,9.72,4.98,2.59,8.38,7.8,8.38,13.8,0,.79-.06,1.56-.17,2.31-.81,5.43,.07,10.33,2.72,15.13,1.29,2.35,2.03,5.05,2.03,7.92,0,.54-.03,1.07-.08,1.6-.46,4.8,.35,9.03,2.57,13.32,.87,1.69,1.36,3.6,1.36,5.63,0,.96-.11,1.89-.32,2.78-1.08,4.65-.84,8.91,.76,13.41,.4,1.14,.62,2.36,.62,3.64,0,.4-.02,.79-.06,1.18-.45,4.21,.09,7.92,1.72,11.83,.46,1.09,.71,2.29,.71,3.56,0,5.09-4.13,9.21-9.22,9.21-4.83,0-8.79-3.71-9.18-8.43-.36-4.23-1.6-7.78-3.95-11.31-1.16-1.73-1.83-3.81-1.83-6.04,0-.35,.02-.69,.05-1.03,.45-4.75-.36-8.94-2.54-13.19-.39-.75-.7-1.55-.92-2.38-1.26-4.66-3.52-8.34-7.11-11.57-3.34-3.01-5.44-7.36-5.44-12.2,0-1.2,.13-2.37,.37-3.49,1.16-5.36,.6-10.31-1.73-15.27-.34-.73-.63-1.5-.86-2.29-1.37-4.76-3.79-8.49-7.57-11.69-1.27-1.08-2.34-2.39-3.12-3.88-2.68-5.1-6.55-8.66-11.86-10.92-3.89-1.65-7.13-4.51-9.27-8.11-3.45-5.8-8.54-9.53-15.11-11.08-6-1.41-10.9-5.66-13.21-11.25-2.47-5.98-6.69-10.26-12.62-12.84-.26-.11-.52-.23-.77-.36-2.59,5.38-8.09,9.09-14.46,9.09-8.86,0-16.04-7.18-16.04-16.04,0-7.57,5.24-13.91,12.29-15.6,5.7-1.37,10.31-3.64,14.86-7.32,3.06-2.48,6.96-3.97,11.21-3.97Z" fill="#c7de7f" fill-rule="evenodd"/>
  <path d="M330.16,109.64c4.79,0,9.12,1.91,12.3,5.01,5.55,5.42,11.65,8.69,19.23,10.3,2.15,.46,4.16,1.29,5.97,2.41,6.77,4.23,13.67,6.13,21.65,5.95,.18,0,.36,0,.54,0,10.95,0,20.23,7.2,23.35,17.12,2.75,8.75,7.71,15.45,15.28,20.62,3.71,2.54,6.55,6.26,7.96,10.63,2.37,7.29,6.18,12.97,12.05,17.91,2.18,1.84,3.89,4.22,4.92,6.94,1.96,5.2,4.55,9.31,8.4,13.32,3.51,3.66,5.67,8.63,5.67,14.1v.05c-.01,4.41,.59,8.19,1.97,12.38,.16,.49,.29,1,.37,1.52,.84,5.15,2.4,9.41,5.08,13.89,.96,1.61,1.52,3.5,1.52,5.51,0,5.93-4.81,10.73-10.74,10.73-4.43,0-8.24-2.69-9.88-6.53-3.73-8.73-9.63-15.09-18.06-19.46-5.93-3.07-10.16-8.97-10.9-15.91-1.4-13.09-8.44-23.73-19.95-30.13-3.47-1.93-6.33-4.85-8.19-8.36-4.29-8.1-10.39-13.78-18.76-17.5-3.43-1.52-6.45-3.82-8.84-6.66-5.13-6.12-11.1-10.05-18.74-12.36-3.32-1-6.25-2.9-8.5-5.41-5.18-5.76-11.05-9.43-18.51-11.54-1.09-.31-2.14-.72-3.13-1.22-6.8-3.44-13.48-4.74-21.08-4.09-.49,.04-.99,.06-1.5,.06-9.58,0-17.35-7.77-17.35-17.35s7.77-17.35,17.35-17.35c2.72,0,5.3,.62,7.59,1.74,6.86,3.34,13.55,4.53,21.14,3.76,.59-.06,1.19-.09,1.79-.09Z" fill="#abd066" fill-rule="evenodd"/>
  <path d="M236.98,340.43c-18.02-24.72-28.67-55.17-28.67-88.11,0-54.56,29.19-102.3,72.8-128.47,37.71,18.67,63.65,57.54,63.65,102.47,0,60.93-47.69,110.73-107.78,114.1Z" fill="#9fc05f" fill-rule="evenodd"/>
  <path d="M236.98,340.43c-18.02-24.72-28.67-55.17-28.67-88.11,0-5.3,.28-10.53,.82-15.68,28.47-24.55,65.53-39.39,106.07-39.39,8.98,0,17.78,.74,26.36,2.14,2.09,8.64,3.2,17.66,3.2,26.94,0,60.93-47.69,110.73-107.78,114.1Z" fill="#91b351" fill-rule="evenodd"/>
  <path d="M299.85,426.28c165.15,0,299.85-3.21,299.85-7.14s-134.7-7.15-299.85-7.15S0,415.2,0,419.13s134.7,7.14,299.85,7.14Z" fill="#d55527" fill-rule="evenodd"/>
  <path d="M117.22,198.11h141.55v183.31c0,20.74-16.97,37.71-37.71,37.71h-66.13c-20.74,0-37.71-16.97-37.71-37.71V198.11Z" fill="#99c1e7" fill-rule="evenodd"/>
  <path d="M117.22,198.11h141.55c-29.16,0-29.16-44.09,0-44.09H117.22c29.16,0,29.16,44.09,0,44.09Z" fill="#7daddd" fill-rule="evenodd"/>
  <path d="M117.22,154.02h141.55v-49.89c0-20.74-16.97-37.71-37.71-37.71h-66.13c-20.74,0-37.71,16.97-37.71,37.71v49.89Z" fill="#99c1e7" fill-rule="evenodd"/>
  <rect x="116.56" y="227.11" width="97.64" height="111.96" fill="#d8eaf8"/>
  <rect x="164.29" y="13.01" width="47.42" height="53.41" fill="#7daddd"/>
  <path d="M170.26,0h35.47c7.16,0,13.01,5.85,13.01,13.01v26.71h-61.49V13.01c0-7.16,5.85-13.01,13.01-13.01Z" fill="#d55527" fill-rule="evenodd"/>
  <rect x="160.73" y="46.55" width="54.53" height="7.32" fill="#99c1e7"/>
  <g>
    <g>
      <path d="M421.18,286.23v123.67c0,5.08-4.16,9.24-9.23,9.24h-128.34c-5.08,0-9.23-4.16-9.23-9.24v-123.67c-8.78-2.61-15.23-10.77-15.23-20.37h0c0-11.68,9.56-21.24,21.24-21.24h134.81c11.68,0,21.24,9.56,21.24,21.24h0c0,9.6-6.45,17.76-15.24,20.37Z" fill="#be8e5e" fill-rule="evenodd"/>
      <path d="M332.08,286.23v123.67c0,5.08-4.15,9.24-9.23,9.24H194.51c-5.08,0-9.23-4.16-9.23-9.24v-123.67c-8.78-2.61-15.23-10.77-15.23-20.37h0c0-11.68,9.56-21.24,21.24-21.24h134.81c11.68,0,21.24,9.56,21.24,21.24h0c0,9.6-6.45,17.76-15.24,20.37Z" fill="#d6ae85" fill-rule="evenodd"/>
      <path d="M204.55,271.86c1.91,0,3.46,1.55,3.46,3.46s-1.55,3.46-3.46,3.46-3.46-1.55-3.46-3.46,1.55-3.46,3.46-3.46h0Zm83.56,15.47c1.53,0,2.77,1.24,2.77,2.77s-1.24,2.77-2.77,2.77-2.77-1.24-2.77-2.77,1.24-2.77,2.77-2.77h0Zm-56.44-10.85c2.1,0,3.81,1.7,3.81,3.81s-1.71,3.81-3.81,3.81-3.81-1.7-3.81-3.81,1.71-3.81,3.81-3.81h0Zm58.86,54.48c1.85,0,3.35,1.5,3.35,3.35s-1.5,3.35-3.35,3.35-3.35-1.5-3.35-3.35,1.5-3.35,3.35-3.35h0Zm-56.9,60.94c2.68,0,4.85,2.17,4.85,4.85s-2.17,4.85-4.85,4.85-4.85-2.17-4.85-4.85,2.17-4.85,4.85-4.85h0Zm-20.89-89.79c2.74,0,4.96,2.22,4.96,4.96s-2.22,4.96-4.96,4.96-4.96-2.22-4.96-4.96,2.22-4.96,4.96-4.96h0Zm45.59-18.24c1.91,0,3.46,1.55,3.46,3.46s-1.55,3.46-3.46,3.46-3.46-1.55-3.46-3.46,1.55-3.46,3.46-3.46h0Zm16.04,73.87c1.98,0,3.58,1.6,3.58,3.58s-1.6,3.58-3.58,3.58-3.58-1.6-3.58-3.58,1.6-3.58,3.58-3.58h0Zm28.51,27.01c2.55,0,4.62,2.07,4.62,4.62s-2.07,4.62-4.62,4.62-4.62-2.07-4.62-4.62,2.07-4.62,4.62-4.62h0Zm3.92-39.01c4.08,0,7.39,3.31,7.39,7.39s-3.31,7.39-7.39,7.39-7.39-3.31-7.39-7.39,3.31-7.39,7.39-7.39h0Zm-1.38-37.16c3.19,0,5.77,2.58,5.77,5.77s-2.58,5.77-5.77,5.77-5.77-2.58-5.77-5.77,2.58-5.77,5.77-5.77h0Zm-4.39-36.47c1.78,0,3.23,1.45,3.23,3.23s-1.45,3.23-3.23,3.23-3.23-1.45-3.23-3.23,1.45-3.23,3.23-3.23h0Zm-23.43,34.85c1.21,0,2.19,.98,2.19,2.19s-.98,2.19-2.19,2.19-2.19-.98-2.19-2.19,.98-2.19,2.19-2.19h0Zm-59.55,26.54c1.59,0,2.89,1.29,2.89,2.89s-1.29,2.89-2.89,2.89-2.88-1.29-2.88-2.89,1.29-2.89,2.88-2.89h0Zm-8.08,46.86c1.98,0,3.58,1.6,3.58,3.58s-1.6,3.58-3.58,3.58-3.58-1.6-3.58-3.58,1.6-3.58,3.58-3.58h0Zm56.67,6.23c2.29,0,4.16,1.86,4.16,4.16s-1.86,4.16-4.16,4.16-4.16-1.86-4.16-4.16,1.86-4.16,4.16-4.16h0Zm-23.78-30.01c2.55,0,4.62,2.07,4.62,4.62s-2.07,4.62-4.62,4.62-4.62-2.07-4.62-4.62,2.07-4.62,4.62-4.62h0Zm22.28-28.62c1.98,0,3.58,1.6,3.58,3.58s-1.6,3.58-3.58,3.58-3.58-1.6-3.58-3.58,1.6-3.58,3.58-3.58h0Zm-26.89-29.31c4.21,0,7.62,3.41,7.62,7.62s-3.41,7.62-7.62,7.62-7.62-3.41-7.62-7.62,3.41-7.62,7.62-7.62Z" fill="#be8e5e" fill-rule="evenodd"/>
    </g>
    <rect x="332.08" y="286.23" width="89.1" height="10.8" fill="#b3804d"/>
  </g>
  <g>
    <rect x="363.71" y="402.05" width="200.82" height="17.08" fill="#d55527"/>
    <g>
      <rect x="471.5" y="348.96" width="58.17" height="53.09" fill="#f2df53"/>
      <rect x="398.56" y="348.96" width="93.26" height="53.09" fill="#fef081"/>
    </g>
  </g>
  <g>
    <path d="M80.55,302.56h103.41c19.04,0,34.62,15.58,34.62,34.62v47.32c0,19.04-15.58,34.62-34.62,34.62H80.55v-116.57Z" fill="#d55527" fill-rule="evenodd"/>
    <path d="M27.46,302.56h103.41c19.04,0,34.62,15.58,34.62,34.62v47.32c0,19.04-15.58,34.62-34.62,34.62H27.46v-116.57Z" fill="#fedd30" fill-rule="evenodd"/>
    <path d="M55.5,323.11c5.42,0,9.81,6.1,9.81,13.62s-4.39,13.62-9.81,13.62-9.81-6.1-9.81-13.62,4.39-13.62,9.81-13.62h0Zm79.99,28.39c2.55,0,4.62,2.48,4.62,5.54s-2.07,5.54-4.62,5.54-4.62-2.48-4.62-5.54,2.07-5.54,4.62-5.54h0Zm-34.51,45.47c2.87,0,5.19,2.74,5.19,6.12s-2.33,6.12-5.19,6.12-5.19-2.74-5.19-6.12,2.33-6.12,5.19-6.12h0Zm-58.4-26.32c2.36,0,4.27,2.64,4.27,5.89s-1.91,5.89-4.27,5.89-4.27-2.64-4.27-5.89,1.91-5.89,4.27-5.89h0Zm34.97-57.02c2.68,0,4.85,2.43,4.85,5.42s-2.17,5.43-4.85,5.43-4.85-2.43-4.85-5.43,2.17-5.42,4.85-5.42h0Zm63.59,7.39c2.74,0,4.96,2.95,4.96,6.58s-2.22,6.58-4.96,6.58-4.96-2.94-4.96-6.58,2.22-6.58,4.96-6.58h0Zm-12.93,59.79c3.51,0,6.35,3.67,6.35,8.19s-2.84,8.19-6.35,8.19-6.35-3.67-6.35-8.19,2.84-8.19,6.35-8.19h0Zm-54.59-4.62c4.59,0,8.31,4.44,8.31,9.93s-3.72,9.93-8.31,9.93-8.31-4.44-8.31-9.93,3.72-9.93,8.31-9.93h0Zm32.43-40.86c6.57,0,11.89,6.67,11.89,14.89s-5.32,14.89-11.89,14.89-11.89-6.67-11.89-14.89,5.32-14.89,11.89-14.89Z" fill="#dfb825" fill-rule="evenodd"/>
  </g>
</svg>